<svg xmlns="http://www.w3.org/2000/svg" viewBox="0 0 64 64">
<defs><linearGradient id="fkg" x1="0" y1="0" x2="1" y2="1"><stop offset="0" stop-color="#A855F7"/><stop offset="1" stop-color="#6D28D9"/></linearGradient></defs>
<path d="M8 0 H56 V8 H64 V56 H56 V64 H8 V56 H0 V8 H8 Z" fill="url(#fkg)"/>
<rect x="7.5" y="21.5" width="7.0" height="7.0" fill="#FFFFFF"/><rect x="14.5" y="21.5" width="7.0" height="7.0" fill="#FFFFFF"/><rect x="21.5" y="21.5" width="7.0" height="7.0" fill="#FFFFFF"/><rect x="7.5" y="28.5" width="7.0" height="7.0" fill="#FFFFFF"/><rect x="21.5" y="28.5" width="7.0" height="7.0" fill="#FFFFFF"/><rect x="28.5" y="28.5" width="7.0" height="7.0" fill="#FFFFFF"/><rect x="35.5" y="28.5" width="7.0" height="7.0" fill="#FFFFFF"/><rect x="42.5" y="28.5" width="7.0" height="7.0" fill="#FFFFFF"/><rect x="49.5" y="28.5" width="7.0" height="7.0" fill="#FFFFFF"/><rect x="7.5" y="35.5" width="7.0" height="7.0" fill="#FFFFFF"/><rect x="14.5" y="35.5" width="7.0" height="7.0" fill="#FFFFFF"/><rect x="21.5" y="35.5" width="7.0" height="7.0" fill="#FFFFFF"/><rect x="35.5" y="35.5" width="7.0" height="7.0" fill="#FFFFFF"/><rect x="49.5" y="35.5" width="7.0" height="7.0" fill="#FFFFFF"/></svg>